<?xml version="1.0" standalone="no"?>
<!DOCTYPE svg PUBLIC "-//W3C//DTD SVG 20010904//EN"
 "http://www.w3.org/TR/2001/REC-SVG-20010904/DTD/svg10.dtd">
<svg version="1.0" xmlns="http://www.w3.org/2000/svg"
 width="117.000000pt" height="99.000000pt" viewBox="0 0 117.000000 99.000000"
 preserveAspectRatio="xMidYMid meet">
<metadata>
Created by potrace 1.10, written by Peter Selinger 2001-2011
</metadata>
<g transform="translate(0.000000,99.000000) scale(0.050000,-0.050000)"
fill="#000000" stroke="none">
<path d="M1971 1789 c-50 -51 -57 -120 -28 -264 l27 -135 12 180 c6 99 18 196
27 215 19 43 4 45 -38 4z"/>
<path d="M935 1775 c-43 -33 -75 -120 -75 -206 0 -48 -9 -69 -30 -69 -16 0
-30 -9 -30 -19 0 -11 -38 -29 -85 -41 -185 -48 -273 -84 -352 -145 -98 -75
-110 -124 -28 -107 45 9 980 134 1380 184 85 11 105 20 105 51 0 20 -7 36 -15
34 -8 -2 -42 8 -75 23 -33 14 -148 30 -255 35 -107 5 -195 18 -195 29 0 10
-17 13 -37 7 -29 -9 -41 4 -60 66 -47 159 -156 228 -248 158z m171 -161 c46
-112 51 -105 -79 -122 l-102 -13 10 96 c19 178 106 198 171 39z m-386 -227
c-38 -17 -88 -47 -110 -66 -37 -34 -190 -75 -190 -52 0 13 146 88 239 122 98
36 147 33 61 -4z"/>
<path d="M2110 1695 c-43 -37 -56 -71 -70 -182 -22 -183 -112 -272 -274 -273
-40 -1 -48 -6 -28 -18 15 -10 64 -13 110 -8 185 21 237 71 262 256 17 131 48
230 72 230 10 0 18 9 18 20 0 33 -34 23 -90 -25z"/>
<path d="M2191 1410 c-7 -38 -36 -96 -64 -130 l-52 -61 54 24 c58 27 111 110
111 175 0 70 -35 64 -49 -8z"/>
<path d="M320 1110 c0 -16 14 -30 30 -30 19 0 30 -19 30 -52 0 -42 -7 -49 -35
-37 -79 34 -250 71 -278 61 -79 -31 -19 -99 116 -132 188 -45 190 -48 202
-275 12 -218 68 -423 141 -513 l47 -58 388 -8 c756 -17 786 4 844 599 l24 236
70 19 c39 11 95 20 125 20 70 0 110 64 64 102 -25 20 -54 21 -152 0 -127 -26
-169 -16 -111 27 91 67 47 71 -735 71 -671 0 -770 -4 -770 -30z m261 -255 c0
-124 13 -333 29 -465 36 -295 36 -280 3 -252 -71 58 -132 394 -133 727 l0 215
50 0 50 0 1 -225z m997 53 c63 -20 -2 -529 -76 -596 -97 -88 -640 -87 -679 0
-37 81 -31 588 7 588 17 0 30 8 30 17 0 17 664 9 718 -9z"/>
</g>
</svg>
