<svg xmlns="http://www.w3.org/2000/svg" viewBox="0 0 600 400" role="img" aria-labelledby="title desc">
  <title id="title">Vlag van Limburg</title>
  <desc id="desc">Limburgse vlag met witte, blauwe en gele banen en rode leeuw.</desc>
  <rect width="600" height="160" y="0" fill="#ffffff"/>
  <rect width="600" height="120" y="160" fill="#0f47af"/>
  <rect width="600" height="120" y="280" fill="#fcdd09"/>

  <!-- Stylized red lion emblem for compact UI rendering -->
  <path
    fill="#d90c15"
    d="M159 314c-13 0-22-3-30-9-8-7-13-16-14-26l-11 7-20-10 11-21c-4-8-6-17-6-27 0-20 8-38 25-52 16-15 37-22 62-22 16 0 30 3 42 9l20-13 20 10-10 20c6 8 10 18 12 29l21 2 6 20-20 9c-2 13-8 24-17 34-17 19-40 29-69 30h-2zm-12-38c7 4 15 6 24 6 17 0 31-5 41-16 11-12 13-27 6-44-6-17-22-30-40-33-15-3-31 1-43 11-12 11-17 26-14 42 3 16 11 27 26 34z"
  />
  <path
    fill="#ffffff"
    d="M153 203c-10 2-18 7-24 16-6 8-8 18-6 28 2 11 8 19 18 25 10 5 21 7 33 5 12-3 22-9 28-19 6-9 8-20 5-31-3-11-10-19-20-24-10-5-22-6-34-3zm-2 19c6 0 11 2 15 5 4 4 6 8 7 14 1 6-1 11-4 16-4 5-9 8-15 9-6 1-12 0-17-3-5-3-8-8-10-14-1-6 0-12 4-17 4-6 10-9 17-10h3z"
  />
</svg>
